<?xml version="1.0" standalone="no"?>
<!DOCTYPE svg PUBLIC "-//W3C//DTD SVG 20010904//EN"
 "http://www.w3.org/TR/2001/REC-SVG-20010904/DTD/svg10.dtd">
<svg version="1.0" xmlns="http://www.w3.org/2000/svg"
 width="736.000000pt" height="736.000000pt" viewBox="0 0 736.000000 736.000000"
 preserveAspectRatio="xMidYMid meet">
<metadata>
Created by potrace 1.14, written by Peter Selinger 2001-2017
</metadata>
<g transform="translate(0.000000,736.000000) scale(0.100000,-0.100000)"
fill="#000000" stroke="none">
<path d="M1682 7335 c-62 -19 -144 -61 -187 -95 -25 -20 -49 -30 -71 -30 -108
0 -390 -112 -505 -201 -108 -82 -339 -331 -339 -364 0 -3 -13 -25 -28 -48 -28
-41 -62 -108 -62 -122 0 -3 -9 -25 -20 -49 -10 -24 -28 -76 -39 -118 -11 -41
-25 -87 -31 -102 -14 -37 -14 -4398 0 -4458 38 -166 56 -224 97 -308 57 -115
107 -192 162 -244 22 -22 46 -56 52 -75 18 -54 120 -201 172 -246 96 -85 138
-117 190 -144 98 -51 269 -101 347 -101 l50 0 0 -246 c0 -268 4 -292 59 -335
38 -30 127 -23 173 14 133 108 312 237 329 237 28 0 221 -130 321 -217 20 -18
58 -41 83 -53 43 -20 47 -20 80 -4 39 18 91 73 106 111 5 13 9 132 9 263 0
208 2 239 16 244 9 3 829 6 1823 6 l1807 0 75 25 c140 47 293 138 371 221 87
93 169 227 202 329 49 153 46 -21 46 2765 0 2354 -2 2604 -16 2662 -9 35 -20
68 -24 73 -4 6 -13 28 -20 50 -41 126 -200 324 -330 411 -76 51 -231 122 -312
143 -77 21 -89 21 -2310 20 -1842 0 -2241 -3 -2276 -14z m1607 -330 c-3 -2
-51 -20 -107 -40 -327 -114 -642 -283 -882 -475 -182 -146 -389 -358 -494
-508 l-31 -44 -6 89 c-9 119 -11 968 -2 976 3 4 348 7 766 7 418 0 758 -2 756
-5z m2892 -9 c213 -45 390 -223 429 -431 8 -43 10 -605 8 -2035 -3 -1938 -3
-1976 -23 -2030 -48 -135 -176 -275 -295 -323 -54 -22 -63 -22 -476 -22 l-421
0 126 73 c69 40 151 90 181 112 30 21 58 36 62 33 5 -2 7 -1 6 4 -2 5 29 36
67 69 385 333 585 728 585 1157 0 168 -13 264 -52 392 -54 178 -122 299 -246
440 -88 101 -179 177 -285 238 -183 106 -315 137 -584 137 -166 0 -256 11
-269 32 -10 16 107 121 170 151 56 28 116 42 275 66 239 36 444 196 555 432
36 76 72 196 62 207 -3 3 -6 -2 -6 -11 0 -10 -4 -17 -10 -17 -5 0 -10 5 -10
10 0 6 -8 10 -18 10 -23 0 -42 32 -35 59 3 11 8 19 12 17 3 -2 7 8 7 22 1 15
8 61 17 102 26 129 40 336 27 410 -15 87 -44 179 -76 237 -61 110 -175 232
-289 307 -61 41 -250 126 -324 146 -22 6 -41 13 -41 15 0 3 181 5 403 5 306 0
418 -4 468 -14z m-4721 -879 l0 -743 -28 -85 c-16 -46 -35 -108 -41 -136 -12
-49 -15 -53 -42 -53 l-29 0 2 868 3 867 45 12 c25 6 55 12 68 12 l22 1 0 -743z
m3091 663 c366 -37 691 -107 851 -182 227 -108 328 -290 264 -476 -26 -75
-107 -161 -188 -197 -58 -27 -75 -29 -233 -36 -157 -6 -177 -9 -254 -38 -322
-119 -541 -412 -541 -720 0 -111 21 -196 72 -301 57 -116 187 -248 298 -302
127 -61 170 -69 430 -78 258 -8 296 -15 408 -76 202 -110 339 -289 398 -522
61 -236 34 -434 -91 -682 -203 -401 -672 -735 -1278 -909 -100 -29 -217 -55
-287 -65 -19 -3 -73 -11 -120 -18 -94 -13 -478 -17 -581 -6 -562 63 -1071 300
-1444 673 -372 370 -562 730 -629 1186 -21 142 -22 492 -1 630 34 222 81 393
171 613 47 115 65 148 153 291 289 470 703 810 1247 1024 183 72 541 158 754
180 202 22 448 26 601 11z m-3481 -919 l0 -818 -31 -7 c-60 -12 -219 -98 -273
-147 -30 -27 -57 -49 -60 -49 -4 0 -5 287 -3 638 4 715 0 675 81 847 45 95 96
176 149 235 37 40 124 120 132 120 3 0 5 -368 5 -819z m250 -1138 c0 -5 -7
-53 -15 -108 -8 -55 -15 -130 -15 -166 l0 -66 -67 -6 c-161 -14 -340 -87 -459
-188 l-59 -50 -3 35 c-5 56 25 154 71 234 103 181 257 290 441 311 99 12 106
12 106 4z m-30 -728 c0 -51 28 -232 45 -289 8 -27 15 -53 15 -58 0 -4 -35 -8
-77 -8 -77 -1 -151 -14 -228 -43 -117 -42 -277 -144 -325 -205 l-21 -27 5 80
c10 136 53 240 151 362 86 108 198 180 321 207 109 23 114 22 114 -19z m170
-1280 l0 -565 -39 0 c-21 0 -53 -3 -70 -6 l-31 -6 0 571 0 571 70 0 70 0 0
-565z m-390 -73 l0 -589 -47 -31 c-64 -42 -182 -157 -223 -218 -19 -26 -49
-82 -67 -124 l-33 -75 3 575 c2 572 3 575 26 640 54 153 162 298 275 372 33
21 61 38 63 38 1 0 3 -265 3 -588z m765 133 c88 -107 229 -247 345 -344 121
-101 188 -148 318 -221 50 -29 92 -54 92 -56 0 -2 -184 -4 -410 -4 l-410 0 0
352 c0 193 2 349 4 347 1 -2 29 -35 61 -74z m4792 -1120 c-3 -213 -6 -246 -25
-298 -71 -193 -237 -337 -422 -367 -43 -6 -663 -10 -1812 -10 l-1748 0 -2 323
-3 322 -568 3 -567 2 -11 -27 c-8 -19 -10 -122 -6 -325 l6 -298 -32 0 c-133 1
-289 85 -360 195 -149 228 -33 511 248 606 33 11 472 15 2520 19 l2480 5 65
21 c83 27 134 53 190 98 l45 36 3 -33 c2 -17 2 -140 -1 -272z m-4407 -741 l0
-296 -90 82 -90 82 -66 -58 c-36 -33 -77 -67 -90 -77 l-24 -19 0 291 0 291
180 0 180 0 0 -296z m97 234 c-2 -13 -4 -3 -4 22 0 25 2 35 4 23 2 -13 2 -33
0 -45z m-540 -570 c-3 -7 -5 -2 -5 12 0 14 2 19 5 13 2 -7 2 -19 0 -25z"/>
<path d="M3813 6376 c-239 -58 -414 -280 -413 -525 1 -147 56 -279 159 -381
114 -114 224 -160 382 -160 156 0 250 40 359 149 122 123 170 237 170 407 0
296 -235 526 -535 523 -38 0 -94 -6 -122 -13z m220 -271 c25 -21 50 -49 57
-64 21 -45 22 -141 3 -195 -25 -68 -57 -89 -141 -94 -58 -3 -72 0 -102 20 -55
38 -69 76 -70 201 l0 107 55 26 c31 15 58 31 61 36 14 22 91 1 137 -37z"/>
<path d="M2625 5775 c-162 -47 -299 -178 -354 -338 -111 -322 101 -667 435
-709 206 -26 395 60 507 230 70 105 91 176 91 307 0 97 -3 118 -28 180 -76
186 -232 318 -410 345 -89 14 -154 10 -241 -15z m206 -233 c13 -10 40 -25 59
-32 19 -8 52 -30 74 -50 38 -34 86 -118 86 -151 0 -47 -168 -146 -267 -156
-44 -5 -62 -1 -119 26 -81 38 -152 93 -160 126 -15 59 63 158 171 220 68 39
120 44 156 17z"/>
<path d="M2350 4524 c-280 -75 -448 -345 -389 -626 26 -125 142 -279 256 -341
61 -32 190 -67 253 -67 185 0 364 103 460 265 117 197 80 467 -85 629 -133
132 -324 186 -495 140z m178 -240 c12 -8 46 -28 74 -43 56 -29 111 -94 104
-124 -2 -9 0 -15 5 -11 5 3 9 -10 9 -30 0 -75 -129 -156 -251 -156 -71 0 -138
21 -202 63 -68 46 -75 78 -32 152 31 53 72 91 142 131 64 36 116 43 151 18z"/>
<path d="M5090 4154 c-154 -29 -280 -113 -362 -239 -112 -172 -111 -419 2
-592 107 -162 257 -243 450 -243 158 1 264 44 373 151 80 80 131 178 155 302
28 140 -9 294 -96 410 -104 137 -243 210 -407 213 -49 1 -101 0 -115 -2z m185
-269 c43 -24 59 -39 57 -52 -2 -15 -1 -16 7 -3 9 13 15 11 38 -14 15 -16 22
-25 15 -21 -9 4 -12 2 -10 -7 2 -7 -1 -13 -7 -13 -5 0 -9 10 -7 23 1 12 -1 22
-6 22 -6 0 -13 -35 -17 -77 -8 -94 -38 -169 -74 -187 -73 -37 -173 -25 -216
26 -43 51 -53 128 -29 215 6 21 4 22 -27 13 l-34 -9 34 27 c62 49 145 91 181
91 22 0 58 -13 95 -34z"/>
<path d="M3300 3610 c-250 -44 -440 -274 -440 -535 0 -250 204 -481 457 -517
165 -24 337 33 449 148 72 74 125 171 149 271 15 63 16 85 6 164 -40 311 -319
521 -621 469z m194 -278 c98 -52 137 -94 161 -175 13 -45 13 -48 -11 -76 -13
-16 -54 -44 -92 -62 -54 -26 -82 -33 -149 -37 -74 -4 -88 -2 -136 22 -30 14
-73 40 -96 56 -35 26 -41 35 -41 67 0 50 34 117 79 155 50 41 151 97 176 97
11 0 60 -21 109 -47z m102 -451 c-7 -11 -76 -52 -76 -46 0 4 70 53 78 54 2 1
1 -3 -2 -8z m-183 -78 c-7 -2 -21 -2 -30 0 -10 3 -4 5 12 5 17 0 24 -2 18 -5z"/>
</g>
</svg>
